<svg width="51" height="14" viewBox="0 0 51 14" fill="none" xmlns="http://www.w3.org/2000/svg">
<rect width="49" height="14" rx="2" fill="#C4C4C4"/>
<path d="M9.296 7.208C9.296 6.664 9.42133 6.176 9.672 5.744C9.928 5.312 10.272 4.976 10.704 4.736C11.1413 4.49067 11.6187 4.368 12.136 4.368C12.728 4.368 13.2533 4.51467 13.712 4.808C14.176 5.096 14.512 5.50667 14.72 6.04H13.624C13.48 5.74667 13.28 5.528 13.024 5.384C12.768 5.24 12.472 5.168 12.136 5.168C11.768 5.168 11.44 5.25067 11.152 5.416C10.864 5.58133 10.6373 5.81867 10.472 6.128C10.312 6.43733 10.232 6.79733 10.232 7.208C10.232 7.61867 10.312 7.97867 10.472 8.288C10.6373 8.59733 10.864 8.83733 11.152 9.008C11.44 9.17333 11.768 9.256 12.136 9.256C12.472 9.256 12.768 9.184 13.024 9.04C13.28 8.896 13.48 8.67733 13.624 8.384H14.72C14.512 8.91733 14.176 9.328 13.712 9.616C13.2533 9.904 12.728 10.048 12.136 10.048C11.6133 10.048 11.136 9.928 10.704 9.688C10.272 9.44267 9.928 9.104 9.672 8.672C9.42133 8.24 9.296 7.752 9.296 7.208ZM17.6995 10.072C17.2835 10.072 16.9075 9.97867 16.5715 9.792C16.2355 9.6 15.9715 9.33333 15.7795 8.992C15.5875 8.64533 15.4915 8.24533 15.4915 7.792C15.4915 7.344 15.5902 6.94667 15.7875 6.6C15.9848 6.25333 16.2542 5.98667 16.5955 5.8C16.9368 5.61333 17.3182 5.52 17.7395 5.52C18.1608 5.52 18.5422 5.61333 18.8835 5.8C19.2248 5.98667 19.4942 6.25333 19.6915 6.6C19.8888 6.94667 19.9875 7.344 19.9875 7.792C19.9875 8.24 19.8862 8.63733 19.6835 8.984C19.4808 9.33067 19.2035 9.6 18.8515 9.792C18.5048 9.97867 18.1208 10.072 17.6995 10.072ZM17.6995 9.28C17.9342 9.28 18.1528 9.224 18.3555 9.112C18.5635 9 18.7315 8.832 18.8595 8.608C18.9875 8.384 19.0515 8.112 19.0515 7.792C19.0515 7.472 18.9902 7.20267 18.8675 6.984C18.7448 6.76 18.5822 6.592 18.3795 6.48C18.1768 6.368 17.9582 6.312 17.7235 6.312C17.4888 6.312 17.2702 6.368 17.0675 6.48C16.8702 6.592 16.7128 6.76 16.5955 6.984C16.4782 7.20267 16.4195 7.472 16.4195 7.792C16.4195 8.26667 16.5395 8.63467 16.7795 8.896C17.0248 9.152 17.3315 9.28 17.6995 9.28ZM21.8011 6.24C21.9557 6.03733 22.1664 5.86667 22.4331 5.728C22.6997 5.58933 23.0011 5.52 23.3371 5.52C23.7211 5.52 24.0704 5.616 24.3851 5.808C24.7051 5.99467 24.9557 6.25867 25.1371 6.6C25.3184 6.94133 25.4091 7.33333 25.4091 7.776C25.4091 8.21867 25.3184 8.616 25.1371 8.968C24.9557 9.31467 24.7051 9.58667 24.3851 9.784C24.0704 9.976 23.7211 10.072 23.3371 10.072C23.0011 10.072 22.7024 10.0053 22.4411 9.872C22.1797 9.73333 21.9664 9.56267 21.8011 9.36V12.096H20.8891V5.592H21.8011V6.24ZM24.4811 7.776C24.4811 7.472 24.4171 7.21067 24.2891 6.992C24.1664 6.768 24.0011 6.6 23.7931 6.488C23.5904 6.37067 23.3717 6.312 23.1371 6.312C22.9077 6.312 22.6891 6.37067 22.4811 6.488C22.2784 6.60533 22.1131 6.776 21.9851 7C21.8624 7.224 21.8011 7.488 21.8011 7.792C21.8011 8.096 21.8624 8.36267 21.9851 8.592C22.1131 8.816 22.2784 8.98667 22.4811 9.104C22.6891 9.22133 22.9077 9.28 23.1371 9.28C23.3717 9.28 23.5904 9.22133 23.7931 9.104C24.0011 8.98133 24.1664 8.80533 24.2891 8.576C24.4171 8.34667 24.4811 8.08 24.4811 7.776ZM26.7749 5.008C26.6096 5.008 26.4709 4.952 26.3589 4.84C26.2469 4.728 26.1909 4.58933 26.1909 4.424C26.1909 4.25867 26.2469 4.12 26.3589 4.008C26.4709 3.896 26.6096 3.84 26.7749 3.84C26.9349 3.84 27.0709 3.896 27.1829 4.008C27.2949 4.12 27.3509 4.25867 27.3509 4.424C27.3509 4.58933 27.2949 4.728 27.1829 4.84C27.0709 4.952 26.9349 5.008 26.7749 5.008ZM27.2229 5.592V10H26.3109V5.592H27.2229ZM32.4603 7.688C32.4603 7.85333 32.4496 8.00267 32.4283 8.136H29.0603C29.087 8.488 29.2176 8.77067 29.4523 8.984C29.687 9.19733 29.975 9.304 30.3163 9.304C30.807 9.304 31.1536 9.09867 31.3563 8.688H32.3403C32.207 9.09333 31.9643 9.42667 31.6123 9.688C31.2656 9.944 30.8336 10.072 30.3163 10.072C29.895 10.072 29.5163 9.97867 29.1803 9.792C28.8496 9.6 28.5883 9.33333 28.3963 8.992C28.2096 8.64533 28.1163 8.24533 28.1163 7.792C28.1163 7.33867 28.207 6.94133 28.3883 6.6C28.575 6.25333 28.8336 5.98667 29.1643 5.8C29.5003 5.61333 29.8843 5.52 30.3163 5.52C30.7323 5.52 31.103 5.61067 31.4283 5.792C31.7536 5.97333 32.007 6.22933 32.1883 6.56C32.3696 6.88533 32.4603 7.26133 32.4603 7.688ZM31.5083 7.4C31.503 7.064 31.383 6.79467 31.1483 6.592C30.9136 6.38933 30.623 6.288 30.2763 6.288C29.9616 6.288 29.6923 6.38933 29.4683 6.592C29.2443 6.78933 29.111 7.05867 29.0683 7.4H31.5083ZM33.0538 7.776C33.0538 7.33333 33.1445 6.94133 33.3258 6.6C33.5125 6.25867 33.7631 5.99467 34.0778 5.808C34.3978 5.616 34.7525 5.52 35.1418 5.52C35.4298 5.52 35.7125 5.584 35.9898 5.712C36.2725 5.83467 36.4965 6 36.6618 6.208V4.08H37.5818V10H36.6618V9.336C36.5125 9.54933 36.3045 9.72533 36.0378 9.864C35.7765 10.0027 35.4751 10.072 35.1338 10.072C34.7498 10.072 34.3978 9.976 34.0778 9.784C33.7631 9.58667 33.5125 9.31467 33.3258 8.968C33.1445 8.616 33.0538 8.21867 33.0538 7.776ZM36.6618 7.792C36.6618 7.488 36.5978 7.224 36.4698 7C36.3471 6.776 36.1845 6.60533 35.9818 6.488C35.7791 6.37067 35.5605 6.312 35.3258 6.312C35.0911 6.312 34.8725 6.37067 34.6698 6.488C34.4671 6.6 34.3018 6.768 34.1738 6.992C34.0511 7.21067 33.9898 7.472 33.9898 7.776C33.9898 8.08 34.0511 8.34667 34.1738 8.576C34.3018 8.80533 34.4671 8.98133 34.6698 9.104C34.8778 9.22133 35.0965 9.28 35.3258 9.28C35.5605 9.28 35.7791 9.22133 35.9818 9.104C36.1845 8.98667 36.3471 8.816 36.4698 8.592C36.5978 8.36267 36.6618 8.096 36.6618 7.792ZM39.9237 4.44L39.8197 8.32H39.0597L38.9557 4.44H39.9237ZM39.4677 10.056C39.3024 10.056 39.1637 10 39.0517 9.888C38.9397 9.776 38.8837 9.63733 38.8837 9.472C38.8837 9.30667 38.9397 9.168 39.0517 9.056C39.1637 8.944 39.3024 8.888 39.4677 8.888C39.6277 8.888 39.7637 8.944 39.8757 9.056C39.9877 9.168 40.0437 9.30667 40.0437 9.472C40.0437 9.63733 39.9877 9.776 39.8757 9.888C39.7637 10 39.6277 10.056 39.4677 10.056Z" fill="white"/>
<path d="M51 7L48.75 9.59808V4.40192L51 7Z" fill="#C4C4C4"/>
</svg>
