<svg width="38" height="38" viewBox="0 0 38 38" fill="none" xmlns="http://www.w3.org/2000/svg">
    <path fill-rule="evenodd" clip-rule="evenodd" d="M23.3535 13.3535C23.1583 13.1582 22.8417 13.1582 22.6464 13.3535L17.7071 18.2928L13.0606 13.6464C12.8654 13.4511 12.5488 13.4511 12.3535 13.6464C12.1583 13.8416 12.1583 14.1582 12.3535 14.3535L17 18.9999L12.2716 23.7283C12.0764 23.9235 12.0764 24.2401 12.2716 24.4354C12.4669 24.6306 12.7835 24.6306 12.9787 24.4354L17.7071 19.707L22.7283 24.7283C22.9236 24.9235 23.2402 24.9235 23.4354 24.7283C23.6307 24.533 23.6307 24.2164 23.4354 24.0212L18.4142 18.9999L23.3535 14.0606C23.5488 13.8653 23.5488 13.5487 23.3535 13.3535Z" fill="#2A8708"/>
</svg>
