<svg width="32" height="12" viewBox="0 0 32 12" fill="none" xmlns="http://www.w3.org/2000/svg">
<path d="M0 6.43949L9.9075 1.72883V11.1502L0 6.43949Z" fill="#C4C4C4"/>
<rect x="3" width="29" height="12" rx="6" fill="#C4C4C4"/>
<path d="M8.185 6.255C8.185 5.915 8.26333 5.61 8.42 5.34C8.58 5.07 8.795 4.86 9.065 4.71C9.33833 4.55667 9.63667 4.48 9.96 4.48C10.33 4.48 10.6583 4.57167 10.945 4.755C11.235 4.935 11.445 5.19167 11.575 5.525H10.89C10.8 5.34167 10.675 5.205 10.515 5.115C10.355 5.025 10.17 4.98 9.96 4.98C9.73 4.98 9.525 5.03167 9.345 5.135C9.165 5.23833 9.02333 5.38667 8.92 5.58C8.82 5.77333 8.77 5.99833 8.77 6.255C8.77 6.51167 8.82 6.73667 8.92 6.93C9.02333 7.12333 9.165 7.27333 9.345 7.38C9.525 7.48333 9.73 7.535 9.96 7.535C10.17 7.535 10.355 7.49 10.515 7.4C10.675 7.31 10.8 7.17333 10.89 6.99H11.575C11.445 7.32333 11.235 7.58 10.945 7.76C10.6583 7.94 10.33 8.03 9.96 8.03C9.63333 8.03 9.335 7.955 9.065 7.805C8.795 7.65167 8.58 7.44 8.42 7.17C8.26333 6.9 8.185 6.595 8.185 6.255ZM13.4372 8.045C13.1772 8.045 12.9422 7.98667 12.7322 7.87C12.5222 7.75 12.3572 7.58333 12.2372 7.37C12.1172 7.15333 12.0572 6.90333 12.0572 6.62C12.0572 6.34 12.1189 6.09167 12.2422 5.875C12.3655 5.65833 12.5339 5.49167 12.7472 5.375C12.9605 5.25833 13.1989 5.2 13.4622 5.2C13.7255 5.2 13.9639 5.25833 14.1772 5.375C14.3905 5.49167 14.5589 5.65833 14.6822 5.875C14.8055 6.09167 14.8672 6.34 14.8672 6.62C14.8672 6.9 14.8039 7.14833 14.6772 7.365C14.5505 7.58167 14.3772 7.75 14.1572 7.87C13.9405 7.98667 13.7005 8.045 13.4372 8.045ZM13.4372 7.55C13.5839 7.55 13.7205 7.515 13.8472 7.445C13.9772 7.375 14.0822 7.27 14.1622 7.13C14.2422 6.99 14.2822 6.82 14.2822 6.62C14.2822 6.42 14.2439 6.25167 14.1672 6.115C14.0905 5.975 13.9889 5.87 13.8622 5.8C13.7355 5.73 13.5989 5.695 13.4522 5.695C13.3055 5.695 13.1689 5.73 13.0422 5.8C12.9189 5.87 12.8205 5.975 12.7472 6.115C12.6739 6.25167 12.6372 6.42 12.6372 6.62C12.6372 6.91667 12.7122 7.14667 12.8622 7.31C13.0155 7.47 13.2072 7.55 13.4372 7.55ZM16.0007 5.65C16.0973 5.52333 16.229 5.41667 16.3957 5.33C16.5623 5.24333 16.7507 5.2 16.9607 5.2C17.2007 5.2 17.419 5.26 17.6157 5.38C17.8157 5.49667 17.9723 5.66167 18.0857 5.875C18.199 6.08833 18.2557 6.33333 18.2557 6.61C18.2557 6.88667 18.199 7.135 18.0857 7.355C17.9723 7.57167 17.8157 7.74167 17.6157 7.865C17.419 7.985 17.2007 8.045 16.9607 8.045C16.7507 8.045 16.564 8.00333 16.4007 7.92C16.2373 7.83333 16.104 7.72667 16.0007 7.6V9.31H15.4307V5.245H16.0007V5.65ZM17.6757 6.61C17.6757 6.42 17.6357 6.25667 17.5557 6.12C17.479 5.98 17.3757 5.875 17.2457 5.805C17.119 5.73167 16.9823 5.695 16.8357 5.695C16.6923 5.695 16.5557 5.73167 16.4257 5.805C16.299 5.87833 16.1957 5.985 16.1157 6.125C16.039 6.265 16.0007 6.43 16.0007 6.62C16.0007 6.81 16.039 6.97667 16.1157 7.12C16.1957 7.26 16.299 7.36667 16.4257 7.44C16.5557 7.51333 16.6923 7.55 16.8357 7.55C16.9823 7.55 17.119 7.51333 17.2457 7.44C17.3757 7.36333 17.479 7.25333 17.5557 7.11C17.6357 6.96667 17.6757 6.8 17.6757 6.61ZM19.1093 4.88C19.006 4.88 18.9193 4.845 18.8493 4.775C18.7793 4.705 18.7443 4.61833 18.7443 4.515C18.7443 4.41167 18.7793 4.325 18.8493 4.255C18.9193 4.185 19.006 4.15 19.1093 4.15C19.2093 4.15 19.2943 4.185 19.3643 4.255C19.4343 4.325 19.4693 4.41167 19.4693 4.515C19.4693 4.61833 19.4343 4.705 19.3643 4.775C19.2943 4.845 19.2093 4.88 19.1093 4.88ZM19.3893 5.245V8H18.8193V5.245H19.3893ZM22.6627 6.555C22.6627 6.65833 22.656 6.75167 22.6427 6.835H20.5377C20.5544 7.055 20.636 7.23167 20.7827 7.365C20.9294 7.49833 21.1094 7.565 21.3227 7.565C21.6294 7.565 21.846 7.43667 21.9727 7.18H22.5877C22.5044 7.43333 22.3527 7.64167 22.1327 7.805C21.916 7.965 21.646 8.045 21.3227 8.045C21.0594 8.045 20.8227 7.98667 20.6127 7.87C20.406 7.75 20.2427 7.58333 20.1227 7.37C20.006 7.15333 19.9477 6.90333 19.9477 6.62C19.9477 6.33667 20.0044 6.08833 20.1177 5.875C20.2344 5.65833 20.396 5.49167 20.6027 5.375C20.8127 5.25833 21.0527 5.2 21.3227 5.2C21.5827 5.2 21.8144 5.25667 22.0177 5.37C22.221 5.48333 22.3794 5.64333 22.4927 5.85C22.606 6.05333 22.6627 6.28833 22.6627 6.555ZM22.0677 6.375C22.0644 6.165 21.9894 5.99667 21.8427 5.87C21.696 5.74333 21.5144 5.68 21.2977 5.68C21.101 5.68 20.9327 5.74333 20.7927 5.87C20.6527 5.99333 20.5694 6.16167 20.5427 6.375H22.0677ZM23.0336 6.61C23.0336 6.33333 23.0903 6.08833 23.2036 5.875C23.3203 5.66167 23.477 5.49667 23.6736 5.38C23.8736 5.26 24.0953 5.2 24.3386 5.2C24.5186 5.2 24.6953 5.24 24.8686 5.32C25.0453 5.39667 25.1853 5.5 25.2886 5.63V4.3H25.8636V8H25.2886V7.585C25.1953 7.71833 25.0653 7.82833 24.8986 7.915C24.7353 8.00167 24.547 8.045 24.3336 8.045C24.0936 8.045 23.8736 7.985 23.6736 7.865C23.477 7.74167 23.3203 7.57167 23.2036 7.355C23.0903 7.135 23.0336 6.88667 23.0336 6.61ZM25.2886 6.62C25.2886 6.43 25.2486 6.265 25.1686 6.125C25.092 5.985 24.9903 5.87833 24.8636 5.805C24.737 5.73167 24.6003 5.695 24.4536 5.695C24.307 5.695 24.1703 5.73167 24.0436 5.805C23.917 5.875 23.8136 5.98 23.7336 6.12C23.657 6.25667 23.6186 6.42 23.6186 6.61C23.6186 6.8 23.657 6.96667 23.7336 7.11C23.8136 7.25333 23.917 7.36333 24.0436 7.44C24.1736 7.51333 24.3103 7.55 24.4536 7.55C24.6003 7.55 24.737 7.51333 24.8636 7.44C24.9903 7.36667 25.092 7.26 25.1686 7.12C25.2486 6.97667 25.2886 6.81 25.2886 6.62ZM27.3273 4.525L27.2623 6.95H26.7873L26.7223 4.525H27.3273ZM27.0423 8.035C26.939 8.035 26.8523 8 26.7823 7.93C26.7123 7.86 26.6773 7.77333 26.6773 7.67C26.6773 7.56667 26.7123 7.48 26.7823 7.41C26.8523 7.34 26.939 7.305 27.0423 7.305C27.1423 7.305 27.2273 7.34 27.2973 7.41C27.3673 7.48 27.4023 7.56667 27.4023 7.67C27.4023 7.77333 27.3673 7.86 27.2973 7.93C27.2273 8 27.1423 8.035 27.0423 8.035Z" fill="#FCFCFC"/>
</svg>
