<svg width="24" height="24" viewBox="0 0 24 24" fill="none" xmlns="http://www.w3.org/2000/svg">
<rect x="9.34204" y="5.5" width="8.47368" height="8.47368" rx="1.5" stroke="#333333"/>
<rect x="0.5" y="0.5" width="23" height="23" rx="3.5" stroke="#333333"/>
<path fill-rule="evenodd" clip-rule="evenodd" d="M8 9H6C4.89543 9 4 9.89543 4 11V16.4737C4 17.5783 4.89543 18.4737 6 18.4737H11.4737C12.5783 18.4737 13.4737 17.5783 13.4737 16.4737V15H12.4737V16.4737C12.4737 17.026 12.026 17.4737 11.4737 17.4737H6C5.44771 17.4737 5 17.026 5 16.4737V11C5 10.4477 5.44771 10 6 10H8V9Z" fill="#333333"/>
</svg>
