<?xml version="1.0" encoding="UTF-8" standalone="no"?>
<!DOCTYPE svg PUBLIC "-//W3C//DTD SVG 1.1//EN" "http://www.w3.org/Graphics/SVG/1.1/DTD/svg11.dtd">
<svg width="100%" height="100%" viewBox="0 0 414 414" version="1.1" xmlns="http://www.w3.org/2000/svg" xmlns:xlink="http://www.w3.org/1999/xlink" xml:space="preserve" xmlns:serif="http://www.serif.com/" style="fill-rule:evenodd;clip-rule:evenodd;stroke-linejoin:round;stroke-miterlimit:2;">
    <g id="cross" transform="matrix(0.621698,0,0,0.6954,-2209.77,-330.574)">
        <rect x="3554.41" y="475.986" width="664.93" height="594.457" style="fill:none;"/>
        <g id="cross1" serif:id="cross" transform="matrix(1.63087,0,0,1.45802,829.602,-460.251)">
            <g transform="matrix(0.536873,-0.536873,0.501135,0.501135,317.916,1171.38)">
                <path d="M2017.3,1228.54C2017.3,1205.29 1999.68,1186.41 1977.98,1186.41L1527.71,1186.41C1506.01,1186.41 1488.39,1205.29 1488.39,1228.54C1488.39,1251.78 1506.01,1270.66 1527.71,1270.66L1977.98,1270.66C1999.68,1270.66 2017.3,1251.78 2017.3,1228.54Z" style="fill:rgb(20,20,43);"/>
            </g>
            <g transform="matrix(-0.536873,-0.536873,-0.501135,0.501135,3431.35,1171.38)">
                <path d="M2017.3,1228.54C2017.3,1205.29 1999.68,1186.41 1977.98,1186.41L1527.71,1186.41C1506.01,1186.41 1488.39,1205.29 1488.39,1228.54C1488.39,1251.78 1506.01,1270.66 1527.71,1270.66L1977.98,1270.66C1999.68,1270.66 2017.3,1251.78 2017.3,1228.54Z" style="fill:rgb(20,20,43);"/>
            </g>
        </g>
    </g>
</svg>
