<svg width="40" height="40" viewBox="0 0 40 40" fill="none" xmlns="http://www.w3.org/2000/svg">
<rect width="40" height="40" rx="20" fill="#CD1818"/>
<path fill-rule="evenodd" clip-rule="evenodd" d="M13.6879 26.0808C14.1601 26.5446 14.9257 26.5446 15.3979 26.0808L19.8581 21.7L24.3351 26.2991C24.797 26.7735 25.5626 26.7907 26.0453 26.3374C26.5279 25.8841 26.5448 25.1321 26.0829 24.6576L21.5685 20.0201L26.3126 15.3603C26.7848 14.8966 26.7848 14.1446 26.3126 13.6808C25.8404 13.2171 25.0748 13.2171 24.6027 13.6808L19.8969 18.3029L15.417 13.7009C14.9551 13.2264 14.1895 13.2093 13.7068 13.6625C13.2242 14.1158 13.2073 14.8679 13.6691 15.3423L18.1865 19.9828L13.6879 24.4013C13.2157 24.8651 13.2157 25.6171 13.6879 26.0808Z" fill="white"/>
</svg>
