<svg width="40" height="40" viewBox="0 0 40 40" fill="none" xmlns="http://www.w3.org/2000/svg">
<rect width="40" height="40" rx="20" fill="#CD1818"/>
<path fill-rule="evenodd" clip-rule="evenodd" d="M14.0488 25.9862C14.5742 26.5022 15.4259 26.5022 15.9513 25.9862L20.337 21.6786L24.7418 26.2035C25.2554 26.7311 26.107 26.7502 26.6438 26.2461C27.1805 25.742 27.1993 24.9056 26.6857 24.3779L22.2392 19.8102L26.6735 15.4548C27.1988 14.9388 27.1988 14.1022 26.6735 13.5862C26.1481 13.0702 25.2963 13.0702 24.771 13.5862L20.3794 17.8997L16.2073 13.6139C15.6936 13.0862 14.8421 13.0671 14.3053 13.5712C13.7685 14.0753 13.7498 14.9117 14.2634 15.4394L18.4772 19.768L14.0488 24.1176C13.5234 24.6336 13.5234 25.4702 14.0488 25.9862Z" fill="white" fill-opacity="0.7"/>
</svg>
