<svg width="40" height="40" viewBox="0 0 40 40" fill="none" xmlns="http://www.w3.org/2000/svg">
<rect width="40" height="40" rx="20" fill="#CD1818"/>
<path fill-rule="evenodd" clip-rule="evenodd" d="M13.5914 25.9843C14.1168 26.5003 14.9685 26.5003 15.4939 25.9843L19.8575 21.6983L24.2491 26.2096C24.7628 26.7373 25.6143 26.7564 26.1511 26.2523C26.6879 25.7481 26.7067 24.9117 26.193 24.3841L21.7597 19.8299L26.2161 15.4529C26.7414 14.9369 26.7414 14.1003 26.2161 13.5843C25.6907 13.0683 24.8389 13.0683 24.3136 13.5843L19.8999 17.9194L15.7067 13.6119C15.1931 13.0843 14.3416 13.0652 13.8048 13.5693C13.268 14.0734 13.2492 14.9098 13.7629 15.4374L17.9977 19.7877L13.5914 24.1156C13.066 24.6317 13.066 25.4683 13.5914 25.9843Z" fill="white" fill-opacity="0.7"/>
</svg>
