<svg width="24" height="24" viewBox="0 0 24 24" fill="none" xmlns="http://www.w3.org/2000/svg">
<rect width="24" height="24" rx="12" fill="#CD1818"/>
<path fill-rule="evenodd" clip-rule="evenodd" d="M7.53892 7.24303C7.18242 7.57783 7.16996 8.13332 7.5111 8.48376L10.7932 11.8553L7.26168 15.3239C6.91277 15.6666 6.91277 16.2223 7.26168 16.565C7.61059 16.9077 8.17628 16.9077 8.52519 16.565L12.0283 13.1242L15.541 16.7325C15.8821 17.083 16.4476 17.0957 16.8041 16.7609C17.1606 16.4261 17.1731 15.8706 16.832 15.5201L13.2917 11.8833L16.738 8.49831C17.0869 8.15561 17.0869 7.59999 16.738 7.25729C16.3891 6.91459 15.8234 6.91459 15.4745 7.25729L12.0565 10.6145L8.8021 7.27135C8.46096 6.92092 7.89542 6.90824 7.53892 7.24303Z" fill="white" fill-opacity="0.7"/>
</svg>
