<svg width="40" height="40" viewBox="0 0 40 40" fill="none" xmlns="http://www.w3.org/2000/svg">
<rect x="0.833333" y="0.833333" width="38.3333" height="38.3333" rx="19.1667" stroke="#184BCD" stroke-width="1.66667"/>
<path fill-rule="evenodd" clip-rule="evenodd" d="M19.9999 14.1673C20.9204 14.1673 21.6666 13.4211 21.6666 12.5007C21.6666 11.5802 20.9204 10.834 19.9999 10.834C19.0794 10.834 18.3333 11.5802 18.3333 12.5007C18.3333 13.4211 19.0794 14.1673 19.9999 14.1673ZM19.9998 16.6673C19.2635 16.6673 18.6665 17.2643 18.6665 18.0006V28.6673C18.6665 29.4037 19.2635 30.0007 19.9998 30.0007C20.7362 30.0007 21.3332 29.4037 21.3332 28.6673V18.0007C21.3332 17.2643 20.7362 16.6673 19.9998 16.6673Z" fill="#184BCD"/>
</svg>
