<svg width="40" height="40" viewBox="0 0 40 40" fill="none" xmlns="http://www.w3.org/2000/svg">
<rect x="0.833333" y="0.833333" width="38.3333" height="38.3333" rx="19.1667" stroke="#184BCD" stroke-width="1.66667"/>
<path fill-rule="evenodd" clip-rule="evenodd" d="M20 14.1668C20.9205 14.1668 21.6667 13.4206 21.6667 12.5002C21.6667 11.5797 20.9205 10.8335 20 10.8335C19.0796 10.8335 18.3334 11.5797 18.3334 12.5002C18.3334 13.4206 19.0796 14.1668 20 14.1668ZM19.9999 16.6667C19.2635 16.6667 18.6666 17.2636 18.6666 18V28.6667C18.6666 29.403 19.2635 30 19.9999 30C20.7363 30 21.3333 29.403 21.3333 28.6667V18C21.3333 17.2636 20.7363 16.6667 19.9999 16.6667Z" fill="#184BCD"/>
</svg>
