<?xml version="1.0" encoding="UTF-8" standalone="no"?>
<!DOCTYPE svg PUBLIC "-//W3C//DTD SVG 1.1//EN" "http://www.w3.org/Graphics/SVG/1.1/DTD/svg11.dtd">
<svg width="100%" height="100%" viewBox="0 0 414 414" version="1.1" xmlns="http://www.w3.org/2000/svg" xmlns:xlink="http://www.w3.org/1999/xlink" xml:space="preserve" xmlns:serif="http://www.serif.com/" style="fill-rule:evenodd;clip-rule:evenodd;stroke-linejoin:round;stroke-miterlimit:2;">
    <g transform="matrix(1,0,0,1,0,-467)">
        <g id="sun" transform="matrix(0.621698,0,0,0.6954,-2209.77,136.548)">
            <rect x="3554.41" y="475.986" width="664.93" height="594.457" style="fill:none;"/>
            <g transform="matrix(1.04291,0,0,0.93238,3657.78,146.034)">
                <path class="switch-icon" d="M219.668,527.623C299.719,527.623 364.711,592.615 364.711,672.666C364.711,752.717 299.719,817.709 219.668,817.709C139.617,817.709 74.625,752.717 74.625,672.666C74.625,592.615 139.617,527.623 219.668,527.623ZM219.668,578.388C271.701,578.388 313.946,620.633 313.946,672.666C313.946,724.699 271.701,766.944 219.668,766.944C167.634,766.944 125.39,724.699 125.39,672.666C125.39,620.633 167.634,578.388 219.668,578.388Z" style="fill:rgb(20,20,43);"/>
            </g>
            <g>
                <g transform="matrix(1.6085,0,0,1.43802,3526.85,-190.901)">
                    <path d="M240.96,514.595C240.96,505.138 233.283,497.461 223.826,497.461C214.37,497.461 206.693,505.138 206.693,514.595L206.693,544.849C206.693,554.305 214.37,561.983 223.826,561.983C233.283,561.983 240.96,554.305 240.96,544.849L240.96,514.595Z" style="fill:rgb(20,20,43);"/>
                </g>
                <g transform="matrix(1.6085,0,0,1.43802,3526.85,232.724)">
                    <path d="M240.96,514.595C240.96,505.138 233.283,497.461 223.826,497.461C214.37,497.461 206.693,505.138 206.693,514.595L206.693,544.849C206.693,554.305 214.37,561.983 223.826,561.983C233.283,561.983 240.96,554.305 240.96,544.849L240.96,514.595Z" style="fill:rgb(20,20,43);"/>
                </g>
                <g transform="matrix(9.84921e-17,1.43802,-1.6085,8.80533e-17,4975.85,460.795)">
                    <path d="M240.96,514.595C240.96,505.138 233.283,497.461 223.826,497.461C214.37,497.461 206.693,505.138 206.693,514.595L206.693,544.849C206.693,554.305 214.37,561.983 223.826,561.983C233.283,561.983 240.96,554.305 240.96,544.849L240.96,514.595Z" style="fill:rgb(20,20,43);"/>
                </g>
                <g transform="matrix(9.84921e-17,1.43802,-1.6085,8.80533e-17,4502.01,460.795)">
                    <path d="M240.96,514.595C240.96,505.138 233.283,497.461 223.826,497.461C214.37,497.461 206.693,505.138 206.693,514.595L206.693,544.849C206.693,554.305 214.37,561.983 223.826,561.983C233.283,561.983 240.96,554.305 240.96,544.849L240.96,514.595Z" style="fill:rgb(20,20,43);"/>
                </g>
                <g transform="matrix(1.13738,1.01683,-1.13738,1.01683,4402.32,-133.345)">
                    <path d="M240.96,514.595C240.96,505.138 233.283,497.461 223.826,497.461C214.37,497.461 206.693,505.138 206.693,514.595L206.693,544.849C206.693,554.305 214.37,561.983 223.826,561.983C233.283,561.983 240.96,554.305 240.96,544.849L240.96,514.595Z" style="fill:rgb(20,20,43);"/>
                </g>
                <g transform="matrix(1.13738,-1.01683,1.13738,1.01683,2862.27,321.843)">
                    <path d="M240.96,514.595C240.96,505.138 233.283,497.461 223.826,497.461C214.37,497.461 206.693,505.138 206.693,514.595L206.693,544.849C206.693,554.305 214.37,561.983 223.826,561.983C233.283,561.983 240.96,554.305 240.96,544.849L240.96,514.595Z" style="fill:rgb(20,20,43);"/>
                </g>
                <g transform="matrix(1.13738,1.01683,-1.13738,1.01683,4067.26,166.203)">
                    <path d="M240.96,514.595C240.96,505.138 233.283,497.461 223.826,497.461C214.37,497.461 206.693,505.138 206.693,514.595L206.693,544.849C206.693,554.305 214.37,561.983 223.826,561.983C233.283,561.983 240.96,554.305 240.96,544.849L240.96,514.595Z" style="fill:rgb(20,20,43);"/>
                </g>
                <g transform="matrix(1.13738,-1.01683,1.13738,1.01683,3197.33,621.391)">
                    <path d="M240.96,514.595C240.96,505.138 233.283,497.461 223.826,497.461C214.37,497.461 206.693,505.138 206.693,514.595L206.693,544.849C206.693,554.305 214.37,561.983 223.826,561.983C233.283,561.983 240.96,554.305 240.96,544.849L240.96,514.595Z" style="fill:rgb(20,20,43);"/>
                </g>
            </g>
        </g>
    </g>
</svg>
