<svg width="14" height="14" viewBox="0 0 14 14" fill="none" xmlns="http://www.w3.org/2000/svg">
<rect width="14" height="14" rx="2.8" fill="#7B57F5"/>
<path d="M5.58225 3.03888C6.02793 2.96004 6.2507 2.71957 6.2507 2.31764C6.2507 2.12847 6.1924 1.97475 6.0759 1.85666C5.95929 1.73841 5.80159 1.6792 5.60279 1.6792C5.28739 1.6792 4.99954 1.74237 4.739 1.86838C4.47846 1.98663 4.26935 2.15618 4.11163 2.37685C3.98136 2.57378 3.88885 2.80237 3.83399 3.06245C3.77224 3.32255 3.74148 3.77972 3.74148 4.43382V5.19035C3.74148 5.93122 3.49804 6.35293 3.01127 6.45536L2.70275 6.53815C2.54505 6.58549 2.42855 6.66433 2.35316 6.77466C2.27775 6.87709 2.23999 7.02288 2.23999 7.21204C2.23999 7.41688 2.28452 7.57455 2.3737 7.68488C2.456 7.79522 2.58627 7.8701 2.76452 7.90952C2.78506 7.90952 2.80561 7.91348 2.82615 7.92123C3.43631 8.03156 3.74148 8.47307 3.74148 9.24543V9.97836C3.74148 10.6877 3.77912 11.1842 3.85453 11.4678C3.92994 11.7596 4.05332 11.9959 4.22481 12.1772C4.38251 12.3507 4.58474 12.4886 4.8315 12.591C5.07149 12.6857 5.32171 12.7328 5.58225 12.7328C5.78792 12.7328 5.95252 12.6738 6.0759 12.5555C6.1924 12.4373 6.2507 12.2798 6.2507 12.0827C6.2507 11.6808 6.04158 11.4443 5.62333 11.3733L5.43831 11.3379C5.27372 11.2985 5.16056 11.2236 5.09892 11.1132C5.03717 11.0029 5.00629 10.7388 5.00629 10.3212V9.36348C5.00629 8.68577 4.95154 8.20896 4.84182 7.93304C4.73209 7.65728 4.53674 7.4168 4.25567 7.21198C4.52987 7.01489 4.7252 6.76666 4.84182 6.46714C4.95154 6.16763 5.00629 5.69875 5.00629 5.06031V4.11462C5.00629 3.68894 5.04061 3.41699 5.10913 3.29889C5.17777 3.17272 5.30459 3.09389 5.48972 3.06238C5.52393 3.05447 5.5548 3.04655 5.58223 3.0388L5.58225 3.03888Z" fill="white"/>
<path d="M8.65798 3.03888C8.21231 2.96005 7.98953 2.71958 7.98953 2.31765C7.98953 2.12847 8.04784 1.97475 8.16433 1.85666C8.28095 1.73841 8.43864 1.6792 8.63745 1.6792C8.95284 1.6792 9.2407 1.74237 9.50123 1.86838C9.76177 1.98663 9.97088 2.15618 10.1286 2.37686C10.2589 2.57379 10.3514 2.80237 10.4062 3.06246C10.468 3.32256 10.4988 3.77973 10.4988 4.43384V5.19037C10.4988 5.93124 10.7422 6.35296 11.229 6.45539L11.5375 6.53818C11.6952 6.58552 11.8117 6.66436 11.8871 6.7747C11.9625 6.87712 12.0002 7.02292 12.0002 7.21208C12.0002 7.41692 11.9557 7.57459 11.8665 7.68492C11.7842 7.79526 11.654 7.87014 11.4757 7.90956C11.4552 7.90956 11.4346 7.91351 11.4141 7.92127C10.8039 8.0316 10.4988 8.47311 10.4988 9.24548V9.97841C10.4988 10.6878 10.4611 11.1842 10.3857 11.4679C10.3103 11.7596 10.1869 11.996 10.0154 12.1773C9.85772 12.3508 9.65549 12.4886 9.40874 12.5911C9.16874 12.6857 8.91852 12.7329 8.65799 12.7329C8.45231 12.7329 8.28771 12.6739 8.16433 12.5556C8.04784 12.4374 7.98953 12.2799 7.98953 12.0828C7.98953 11.6808 8.19865 11.4443 8.6169 11.3734L8.80192 11.3379C8.96651 11.2985 9.07968 11.2236 9.14132 11.1133C9.20307 11.003 9.23394 10.7389 9.23394 10.3213V9.36353C9.23394 8.68582 9.28869 8.209 9.39842 7.93308C9.50814 7.65732 9.70349 7.41683 9.98457 7.21201C9.71037 7.01492 9.51503 6.7667 9.39842 6.46717C9.28869 6.16766 9.23394 5.69877 9.23394 5.06033V4.11464C9.23394 3.68895 9.19962 3.417 9.1311 3.29891C9.06247 3.17273 8.93564 3.09389 8.75051 3.06239C8.71631 3.05448 8.68544 3.04656 8.658 3.03881L8.65798 3.03888Z" fill="white"/>
</svg>
